<svg width="12" height="15" viewBox="0 0 12 15" fill="none" xmlns="http://www.w3.org/2000/svg">
<path d="M6.00002 11.3334C6.73335 11.3334 7.33335 10.7334 7.33335 10.0001C7.33335 9.26675 6.73335 8.66675 6.00002 8.66675C5.26669 8.66675 4.66669 9.26675 4.66669 10.0001C4.66669 10.7334 5.26669 11.3334 6.00002 11.3334ZM10 5.33341H9.33335V4.00008C9.33335 2.16008 7.84002 0.666748 6.00002 0.666748C4.16002 0.666748 2.66669 2.16008 2.66669 4.00008V5.33341H2.00002C1.26669 5.33341 0.666687 5.93341 0.666687 6.66675V13.3334C0.666687 14.0667 1.26669 14.6667 2.00002 14.6667H10C10.7334 14.6667 11.3334 14.0667 11.3334 13.3334V6.66675C11.3334 5.93341 10.7334 5.33341 10 5.33341ZM3.93335 4.00008C3.93335 2.86008 4.86002 1.93341 6.00002 1.93341C7.14002 1.93341 8.06669 2.86008 8.06669 4.00008V5.33341H3.93335V4.00008ZM10 13.3334H2.00002V6.66675H10V13.3334Z" fill="#616161"/>
</svg>
