<svg width="12" height="12" viewBox="0 0 12 12" fill="none" xmlns="http://www.w3.org/2000/svg">
<path d="M6.00002 1.93341C6.77335 1.93341 7.40002 2.56008 7.40002 3.33341C7.40002 4.10675 6.77335 4.73341 6.00002 4.73341C5.22669 4.73341 4.60002 4.10675 4.60002 3.33341C4.60002 2.56008 5.22669 1.93341 6.00002 1.93341ZM6.00002 7.93341C7.98002 7.93341 10.0667 8.90675 10.0667 9.33341V10.0667H1.93335V9.33341C1.93335 8.90675 4.02002 7.93341 6.00002 7.93341ZM6.00002 0.666748C4.52669 0.666748 3.33335 1.86008 3.33335 3.33341C3.33335 4.80675 4.52669 6.00008 6.00002 6.00008C7.47335 6.00008 8.66669 4.80675 8.66669 3.33341C8.66669 1.86008 7.47335 0.666748 6.00002 0.666748ZM6.00002 6.66675C4.22002 6.66675 0.666687 7.56008 0.666687 9.33341V11.3334H11.3334V9.33341C11.3334 7.56008 7.78002 6.66675 6.00002 6.66675Z" fill="#616161"/>
</svg>
