<svg width="16" height="19" viewBox="0 0 16 19" fill="none" xmlns="http://www.w3.org/2000/svg">
<path fill-rule="evenodd" clip-rule="evenodd" d="M11.2707 6.38155C6.88929 6.72217 5.11631 7.10566 2.87323 9.93942C1.06185 12.2278 1.23902 16.0106 1.29342 17.172C1.30638 17.4487 1.31237 17.5766 1.2828 17.4999C-0.0154073 14.0691 -0.51856 12.2207 0.678441 8.98642C2.21192 6.17415 4.00684 5.0725 7.9626 3.49078C11.2689 2.20946 14.1971 0.917605 14.7378 0.28234C15.2786 -0.352925 15.2786 0.28234 15.2786 0.28234C16.2514 5.75335 16.3295 8.55651 14.9605 12.7031C13.9584 14.6236 12.9279 15.8854 11.503 16.7475L9.87071 12.1955H9.52143H8.6657H8.36882L6.16942 18.3291C5.94273 18.3602 5.70989 18.39 5.47063 18.4186V12.1955H4.12591V18.3142C3.71031 18.0686 3.50188 17.5325 3.35036 16.6104C3.19153 13.3933 3.68909 11.7963 5.76781 9.36762C7.62128 7.71282 8.81458 7.03997 11.2707 6.38155ZM7.57541 18.1034C8.64131 17.9029 9.55182 17.6535 10.3484 17.3256L10.2714 17.0907H7.90897L7.57541 18.1034ZM9.09266 13.4972L8.25388 16.0436H9.92791L9.09266 13.4972Z" fill="#00FFB0"/>
</svg>
